<mxfile host="app.diagrams.net" modified="2023-10-17T03:37:42.753Z" agent="Mozilla/5.0 (Windows NT 10.0; Win64; x64) AppleWebKit/537.36 (KHTML, like Gecko) Chrome/118.0.0.0 Safari/537.36" etag="F6sK29OF-cTFqHRDplta" version="22.0.4" type="device">
  <diagram name="Página-1" id="ub7o1OZGtogrITHaL0nm">
    <mxGraphModel dx="1727" dy="920" grid="1" gridSize="10" guides="1" tooltips="1" connect="1" arrows="1" fold="1" page="1" pageScale="1" pageWidth="1169" pageHeight="827" math="0" shadow="0">
      <root>
        <mxCell id="0" />
        <mxCell id="1" parent="0" />
        <object placeholders="1" c4Name="Sistema" c4Type="ContainerScopeBoundary" c4Application="Cashflow" label="&lt;font style=&quot;font-size: 16px&quot;&gt;&lt;b&gt;&lt;div style=&quot;text-align: left&quot;&gt;%c4Name%&lt;/div&gt;&lt;/b&gt;&lt;/font&gt;&lt;div style=&quot;text-align: left&quot;&gt;[%c4Application%]&lt;/div&gt;" id="3SzR7-pGt0BiJ6Neo7B--51">
          <mxCell style="rounded=1;fontSize=11;whiteSpace=wrap;html=1;dashed=1;arcSize=20;fillColor=none;strokeColor=#666666;fontColor=#333333;labelBackgroundColor=none;align=left;verticalAlign=bottom;labelBorderColor=none;spacingTop=0;spacing=10;dashPattern=8 4;metaEdit=1;rotatable=0;perimeter=rectanglePerimeter;noLabel=0;labelPadding=0;allowArrows=0;connectable=0;expand=0;recursiveResize=0;editable=1;pointerEvents=0;absoluteArcSize=1;points=[[0.25,0,0],[0.5,0,0],[0.75,0,0],[1,0.25,0],[1,0.5,0],[1,0.75,0],[0.75,1,0],[0.5,1,0],[0.25,1,0],[0,0.75,0],[0,0.5,0],[0,0.25,0]];" vertex="1" parent="1">
            <mxGeometry x="115" y="980" width="970" height="650" as="geometry" />
          </mxCell>
        </object>
        <object placeholders="1" c4Name="Cliente do Banco" c4Type="Contexto" c4Description="Cliente que possui conta corrente." label="&lt;font style=&quot;font-size: 16px&quot;&gt;&lt;b&gt;%c4Name%&lt;/b&gt;&lt;/font&gt;&lt;div&gt;[%c4Type%]&lt;/div&gt;&lt;br&gt;&lt;div&gt;&lt;font style=&quot;font-size: 11px&quot;&gt;&lt;font color=&quot;#cccccc&quot;&gt;%c4Description%&lt;/font&gt;&lt;/div&gt;" id="3SzR7-pGt0BiJ6Neo7B--1">
          <mxCell style="html=1;fontSize=11;dashed=0;whiteSpace=wrap;fillColor=#083F75;strokeColor=#06315C;fontColor=#ffffff;shape=mxgraph.c4.person2;align=center;metaEdit=1;points=[[0.5,0,0],[1,0.5,0],[1,0.75,0],[0.75,1,0],[0.5,1,0],[0.25,1,0],[0,0.75,0],[0,0.5,0]];resizable=0;" vertex="1" parent="1">
            <mxGeometry x="470" y="190" width="200" height="180" as="geometry" />
          </mxCell>
        </object>
        <object placeholders="1" c4Name="Cashflow" c4Type="Contexto" c4Description="Sistema de fluxo de caixa para conta corrente" label="&lt;font style=&quot;font-size: 16px&quot;&gt;&lt;b&gt;%c4Name%&lt;/b&gt;&lt;/font&gt;&lt;div&gt;[%c4Type%]&lt;/div&gt;&lt;br&gt;&lt;div&gt;&lt;font style=&quot;font-size: 11px&quot;&gt;&lt;font color=&quot;#cccccc&quot;&gt;%c4Description%&lt;/font&gt;&lt;/div&gt;" id="3SzR7-pGt0BiJ6Neo7B--2">
          <mxCell style="rounded=1;whiteSpace=wrap;html=1;labelBackgroundColor=none;fillColor=#1061B0;fontColor=#ffffff;align=center;arcSize=10;strokeColor=#0D5091;metaEdit=1;resizable=0;points=[[0.25,0,0],[0.5,0,0],[0.75,0,0],[1,0.25,0],[1,0.5,0],[1,0.75,0],[0.75,1,0],[0.5,1,0],[0.25,1,0],[0,0.75,0],[0,0.5,0],[0,0.25,0]];" vertex="1" parent="1">
            <mxGeometry x="450" y="530" width="240" height="120" as="geometry" />
          </mxCell>
        </object>
        <mxCell id="3SzR7-pGt0BiJ6Neo7B--3" style="edgeStyle=orthogonalEdgeStyle;rounded=0;orthogonalLoop=1;jettySize=auto;html=1;entryX=0;entryY=0.5;entryDx=0;entryDy=0;entryPerimeter=0;exitX=0;exitY=0.75;exitDx=0;exitDy=0;exitPerimeter=0;curved=1;" edge="1" parent="1" source="3SzR7-pGt0BiJ6Neo7B--1" target="3SzR7-pGt0BiJ6Neo7B--2">
          <mxGeometry relative="1" as="geometry">
            <Array as="points">
              <mxPoint x="350" y="325" />
              <mxPoint x="350" y="590" />
            </Array>
          </mxGeometry>
        </mxCell>
        <mxCell id="3SzR7-pGt0BiJ6Neo7B--18" value="Text" style="text;html=1;strokeColor=none;fillColor=none;align=center;verticalAlign=middle;whiteSpace=wrap;rounded=0;" vertex="1" parent="1">
          <mxGeometry x="570" y="330" width="60" height="30" as="geometry" />
        </mxCell>
        <mxCell id="3SzR7-pGt0BiJ6Neo7B--19" value="&lt;font color=&quot;#6b6b6b&quot; style=&quot;font-size: 36px;&quot;&gt;&lt;b style=&quot;&quot;&gt;Contexto&lt;/b&gt;&lt;/font&gt;" style="text;html=1;strokeColor=none;fillColor=none;align=left;verticalAlign=middle;whiteSpace=wrap;rounded=0;" vertex="1" parent="1">
          <mxGeometry x="70" y="30" width="160" height="30" as="geometry" />
        </mxCell>
        <mxCell id="3SzR7-pGt0BiJ6Neo7B--22" value="&lt;font style=&quot;font-size: 24px;&quot;&gt;&lt;b style=&quot;&quot;&gt;Documentação para aplicação Cashflow&lt;/b&gt;&lt;/font&gt;" style="text;html=1;strokeColor=none;fillColor=none;align=left;verticalAlign=middle;whiteSpace=wrap;rounded=0;" vertex="1" parent="1">
          <mxGeometry x="75" y="70" width="1020" height="30" as="geometry" />
        </mxCell>
        <object placeholders="1" c4Name="Cliente do Banco" c4Type="Contexto" c4Description="Cliente que possui conta corrente." label="&lt;font style=&quot;font-size: 16px&quot;&gt;&lt;b&gt;%c4Name%&lt;/b&gt;&lt;/font&gt;&lt;div&gt;[%c4Type%]&lt;/div&gt;&lt;br&gt;&lt;div&gt;&lt;font style=&quot;font-size: 11px&quot;&gt;&lt;font color=&quot;#cccccc&quot;&gt;%c4Description%&lt;/font&gt;&lt;/div&gt;" id="3SzR7-pGt0BiJ6Neo7B--24">
          <mxCell style="html=1;fontSize=11;dashed=0;whiteSpace=wrap;fillColor=#083F75;strokeColor=#06315C;fontColor=#ffffff;shape=mxgraph.c4.person2;align=center;metaEdit=1;points=[[0.5,0,0],[1,0.5,0],[1,0.75,0],[0.75,1,0],[0.5,1,0],[0.25,1,0],[0,0.75,0],[0,0.5,0]];resizable=0;" vertex="1" parent="1">
            <mxGeometry x="35" y="1200" width="200" height="180" as="geometry" />
          </mxCell>
        </object>
        <mxCell id="3SzR7-pGt0BiJ6Neo7B--33" value="&lt;font color=&quot;#6b6b6b&quot; style=&quot;font-size: 36px;&quot;&gt;&lt;b style=&quot;&quot;&gt;Container&lt;/b&gt;&lt;/font&gt;" style="text;html=1;strokeColor=none;fillColor=none;align=left;verticalAlign=middle;whiteSpace=wrap;rounded=0;" vertex="1" parent="1">
          <mxGeometry x="75" y="880" width="160" height="30" as="geometry" />
        </mxCell>
        <mxCell id="3SzR7-pGt0BiJ6Neo7B--34" value="&lt;b style=&quot;border-color: var(--border-color); font-size: 24px;&quot;&gt;Documentação para aplicação Cashflow&lt;/b&gt;" style="text;html=1;strokeColor=none;fillColor=none;align=left;verticalAlign=middle;whiteSpace=wrap;rounded=0;" vertex="1" parent="1">
          <mxGeometry x="80" y="920" width="630" height="30" as="geometry" />
        </mxCell>
        <object placeholders="1" c4Type="Container" c4Container="Frontend" c4Technology="ReactJS" c4Description="Essa interface o cliente pode consultar dados ou lançar transações de débito e crédito" label="&lt;font style=&quot;font-size: 16px&quot;&gt;&lt;b&gt;%c4Type%&lt;/b&gt;&lt;/font&gt;&lt;div&gt;[%c4Container%:&amp;nbsp;%c4Technology%]&lt;/div&gt;&lt;br&gt;&lt;div&gt;&lt;font style=&quot;font-size: 11px&quot;&gt;&lt;font color=&quot;#E6E6E6&quot;&gt;%c4Description%&lt;/font&gt;&lt;/div&gt;" id="3SzR7-pGt0BiJ6Neo7B--52">
          <mxCell style="shape=mxgraph.c4.webBrowserContainer2;whiteSpace=wrap;html=1;boundedLbl=1;rounded=0;labelBackgroundColor=none;strokeColor=#006EAF;fillColor=#1ba1e2;strokeColor=#118ACD;strokeColor2=#0E7DAD;fontSize=12;fontColor=#ffffff;align=center;metaEdit=1;points=[[0.5,0,0],[1,0.25,0],[1,0.5,0],[1,0.75,0],[0.5,1,0],[0,0.75,0],[0,0.5,0],[0,0.25,0]];resizable=0;" vertex="1" parent="1">
            <mxGeometry x="320" y="1040" width="240" height="160" as="geometry" />
          </mxCell>
        </object>
        <mxCell id="3SzR7-pGt0BiJ6Neo7B--53" style="edgeStyle=orthogonalEdgeStyle;rounded=0;orthogonalLoop=1;jettySize=auto;html=1;entryX=0;entryY=0.5;entryDx=0;entryDy=0;entryPerimeter=0;curved=1;" edge="1" parent="1" source="3SzR7-pGt0BiJ6Neo7B--24" target="3SzR7-pGt0BiJ6Neo7B--52">
          <mxGeometry relative="1" as="geometry" />
        </mxCell>
        <object placeholders="1" c4Name="API Produtor" c4Type="Container" c4Technology=".Net core 6" c4Description="Por essa interface é possível recuperar extrato diário, consolidado , saldo e lançar mensagens ao broker" label="&lt;font style=&quot;font-size: 16px&quot;&gt;&lt;b&gt;%c4Name%&lt;/b&gt;&lt;/font&gt;&lt;div&gt;[%c4Type%: %c4Technology%]&lt;/div&gt;&lt;br&gt;&lt;div&gt;&lt;font style=&quot;font-size: 11px&quot;&gt;&lt;font color=&quot;#E6E6E6&quot;&gt;%c4Description%&lt;/font&gt;&lt;/div&gt;" id="3SzR7-pGt0BiJ6Neo7B--54">
          <mxCell style="rounded=1;whiteSpace=wrap;html=1;fontSize=11;labelBackgroundColor=none;fillColor=#60a917;align=center;arcSize=10;strokeColor=#2D7600;metaEdit=1;resizable=0;points=[[0.25,0,0],[0.5,0,0],[0.75,0,0],[1,0.25,0],[1,0.5,0],[1,0.75,0],[0.75,1,0],[0.5,1,0],[0.25,1,0],[0,0.75,0],[0,0.5,0],[0,0.25,0]];fontColor=#ffffff;" vertex="1" parent="1">
            <mxGeometry x="230" y="1410" width="240" height="120" as="geometry" />
          </mxCell>
        </object>
        <object placeholders="1" c4Type="Container" c4Container="Broker" c4Technology="RabbitMq" c4Description="Sistema de mensageria para controle de solicitações de gravação das transações" label="&lt;font style=&quot;font-size: 16px&quot;&gt;&lt;b&gt;%c4Type%&lt;/b&gt;&lt;/font&gt;&lt;div&gt;[%c4Container%:&amp;nbsp;%c4Technology%]&lt;/div&gt;&lt;br&gt;&lt;div&gt;&lt;font style=&quot;font-size: 11px&quot;&gt;&lt;font color=&quot;#E6E6E6&quot;&gt;%c4Description%&lt;/font&gt;&lt;/div&gt;" id="3SzR7-pGt0BiJ6Neo7B--56">
          <mxCell style="shape=cylinder3;size=15;direction=south;whiteSpace=wrap;html=1;boundedLbl=1;rounded=0;labelBackgroundColor=none;fillColor=#1ba1e2;fontSize=12;fontColor=#ffffff;align=center;strokeColor=#006EAF;metaEdit=1;points=[[0.5,0,0],[1,0.25,0],[1,0.5,0],[1,0.75,0],[0.5,1,0],[0,0.75,0],[0,0.5,0],[0,0.25,0]];resizable=0;" vertex="1" parent="1">
            <mxGeometry x="700" y="1440" width="240" height="120" as="geometry" />
          </mxCell>
        </object>
        <object placeholders="1" c4Name="API Consumidor" c4Type="Container" c4Technology=".Net Core 6" c4Description="Consumir as mensagens do broker e grava-las na base de dados." label="&lt;font style=&quot;font-size: 16px&quot;&gt;&lt;b&gt;%c4Name%&lt;/b&gt;&lt;/font&gt;&lt;div&gt;[%c4Type%: %c4Technology%]&lt;/div&gt;&lt;br&gt;&lt;div&gt;&lt;font style=&quot;font-size: 11px&quot;&gt;&lt;font color=&quot;#E6E6E6&quot;&gt;%c4Description%&lt;/font&gt;&lt;/div&gt;" id="3SzR7-pGt0BiJ6Neo7B--58">
          <mxCell style="rounded=1;whiteSpace=wrap;html=1;fontSize=11;labelBackgroundColor=none;fillColor=#60a917;fontColor=#ffffff;align=center;arcSize=10;strokeColor=#2D7600;metaEdit=1;resizable=0;points=[[0.25,0,0],[0.5,0,0],[0.75,0,0],[1,0.25,0],[1,0.5,0],[1,0.75,0],[0.75,1,0],[0.5,1,0],[0.25,1,0],[0,0.75,0],[0,0.5,0],[0,0.25,0]];" vertex="1" parent="1">
            <mxGeometry x="815" y="1050" width="240" height="120" as="geometry" />
          </mxCell>
        </object>
        <object placeholders="1" c4Type="Container" c4Container="Banco de dados" c4Technology="Microsoft SQL Server Developer (64-bit)" c4Description="Persistir os dados do sistema de transações de débito e crédito" label="&lt;font style=&quot;font-size: 16px&quot;&gt;&lt;b&gt;%c4Type%&lt;/b&gt;&lt;/font&gt;&lt;div&gt;[%c4Container%:&amp;nbsp;%c4Technology%]&lt;/div&gt;&lt;br&gt;&lt;div&gt;&lt;font style=&quot;font-size: 11px&quot;&gt;&lt;font color=&quot;#E6E6E6&quot;&gt;%c4Description%&lt;/font&gt;&lt;/div&gt;" id="3SzR7-pGt0BiJ6Neo7B--59">
          <mxCell style="shape=cylinder3;size=15;whiteSpace=wrap;html=1;boundedLbl=1;rounded=0;labelBackgroundColor=none;fillColor=#1ba1e2;fontSize=12;fontColor=#ffffff;align=center;strokeColor=#006EAF;metaEdit=1;points=[[0.5,0,0],[1,0.25,0],[1,0.5,0],[1,0.75,0],[0.5,1,0],[0,0.75,0],[0,0.5,0],[0,0.25,0]];resizable=0;" vertex="1" parent="1">
            <mxGeometry x="590" y="1240" width="240" height="120" as="geometry" />
          </mxCell>
        </object>
        <mxCell id="3SzR7-pGt0BiJ6Neo7B--64" value="&lt;font color=&quot;#6b6b6b&quot; style=&quot;font-size: 36px;&quot;&gt;&lt;b style=&quot;&quot;&gt;Componentes&lt;/b&gt;&lt;/font&gt;" style="text;html=1;strokeColor=none;fillColor=none;align=left;verticalAlign=middle;whiteSpace=wrap;rounded=0;" vertex="1" parent="1">
          <mxGeometry x="100" y="1710" width="250" height="30" as="geometry" />
        </mxCell>
        <mxCell id="3SzR7-pGt0BiJ6Neo7B--65" value="&lt;b style=&quot;border-color: var(--border-color); font-size: 24px;&quot;&gt;Documentação para aplicação Cashflow&lt;/b&gt;" style="text;html=1;strokeColor=none;fillColor=none;align=left;verticalAlign=middle;whiteSpace=wrap;rounded=0;" vertex="1" parent="1">
          <mxGeometry x="105" y="1750" width="630" height="30" as="geometry" />
        </mxCell>
        <mxCell id="3SzR7-pGt0BiJ6Neo7B--68" value="Consulta saldo e lança transações no dia a dia" style="text;html=1;strokeColor=none;fillColor=none;align=center;verticalAlign=middle;whiteSpace=wrap;rounded=0;" vertex="1" parent="1">
          <mxGeometry x="380" y="380" width="165" height="30" as="geometry" />
        </mxCell>
        <mxCell id="3SzR7-pGt0BiJ6Neo7B--70" style="edgeStyle=orthogonalEdgeStyle;curved=1;rounded=0;orthogonalLoop=1;jettySize=auto;html=1;entryX=1;entryY=0.75;entryDx=0;entryDy=0;entryPerimeter=0;exitX=1;exitY=0.5;exitDx=0;exitDy=0;exitPerimeter=0;" edge="1" parent="1" source="3SzR7-pGt0BiJ6Neo7B--2" target="3SzR7-pGt0BiJ6Neo7B--1">
          <mxGeometry relative="1" as="geometry">
            <Array as="points">
              <mxPoint x="800" y="590" />
              <mxPoint x="800" y="325" />
            </Array>
          </mxGeometry>
        </mxCell>
        <mxCell id="3SzR7-pGt0BiJ6Neo7B--71" value="Dispõe as informações solicitadas" style="text;html=1;strokeColor=none;fillColor=none;align=center;verticalAlign=middle;whiteSpace=wrap;rounded=0;" vertex="1" parent="1">
          <mxGeometry x="610" y="480" width="165" height="30" as="geometry" />
        </mxCell>
        <mxCell id="3SzR7-pGt0BiJ6Neo7B--73" value="Consulta dados e lança operações de débito ou crédito" style="text;html=1;strokeColor=none;fillColor=none;align=center;verticalAlign=middle;whiteSpace=wrap;rounded=0;" vertex="1" parent="1">
          <mxGeometry x="115" y="1150" width="150" height="30" as="geometry" />
        </mxCell>
        <object placeholders="1" c4Type="Relationship" c4Technology="JSON/HTTP" c4Description="Consulta e grava na API " label="&lt;div style=&quot;text-align: left&quot;&gt;&lt;div style=&quot;text-align: center&quot;&gt;&lt;b&gt;%c4Description%&lt;/b&gt;&lt;/div&gt;&lt;div style=&quot;text-align: center&quot;&gt;[%c4Technology%]&lt;/div&gt;&lt;/div&gt;" id="3SzR7-pGt0BiJ6Neo7B--77">
          <mxCell style="endArrow=blockThin;html=1;fontSize=10;fontColor=#404040;strokeWidth=1;endFill=1;strokeColor=#828282;elbow=vertical;metaEdit=1;endSize=14;startSize=14;jumpStyle=arc;jumpSize=16;rounded=0;edgeStyle=orthogonalEdgeStyle;exitX=0.5;exitY=1;exitDx=0;exitDy=0;exitPerimeter=0;" edge="1" parent="1" source="3SzR7-pGt0BiJ6Neo7B--52">
            <mxGeometry width="240" relative="1" as="geometry">
              <mxPoint x="550" y="1220" as="sourcePoint" />
              <mxPoint x="350" y="1410" as="targetPoint" />
            </mxGeometry>
          </mxCell>
        </object>
        <object placeholders="1" c4Type="Relationship" c4Technology="TSQL" c4Description="Persiste operações" label="&lt;div style=&quot;text-align: left&quot;&gt;&lt;div style=&quot;text-align: center&quot;&gt;&lt;b&gt;%c4Description%&lt;/b&gt;&lt;/div&gt;&lt;div style=&quot;text-align: center&quot;&gt;[%c4Technology%]&lt;/div&gt;&lt;/div&gt;" id="3SzR7-pGt0BiJ6Neo7B--79">
          <mxCell style="endArrow=blockThin;html=1;fontSize=10;fontColor=#404040;strokeWidth=1;endFill=1;strokeColor=#828282;elbow=vertical;metaEdit=1;endSize=14;startSize=14;jumpStyle=arc;jumpSize=16;rounded=0;edgeStyle=orthogonalEdgeStyle;exitX=0;exitY=0.5;exitDx=0;exitDy=0;exitPerimeter=0;entryX=0.5;entryY=0;entryDx=0;entryDy=0;entryPerimeter=0;" edge="1" parent="1" source="3SzR7-pGt0BiJ6Neo7B--58" target="3SzR7-pGt0BiJ6Neo7B--59">
            <mxGeometry x="0.0639" y="-10" width="240" relative="1" as="geometry">
              <mxPoint x="550" y="1220" as="sourcePoint" />
              <mxPoint x="790" y="1220" as="targetPoint" />
              <mxPoint as="offset" />
            </mxGeometry>
          </mxCell>
        </object>
        <object placeholders="1" c4Type="Relationship" c4Technology="TSQL" c4Description="Consulta Operações" label="&lt;div style=&quot;text-align: left&quot;&gt;&lt;div style=&quot;text-align: center&quot;&gt;&lt;b&gt;%c4Description%&lt;/b&gt;&lt;/div&gt;&lt;div style=&quot;text-align: center&quot;&gt;[%c4Technology%]&lt;/div&gt;&lt;/div&gt;" id="3SzR7-pGt0BiJ6Neo7B--81">
          <mxCell style="endArrow=blockThin;html=1;fontSize=10;fontColor=#404040;strokeWidth=1;endFill=1;strokeColor=#828282;elbow=vertical;metaEdit=1;endSize=14;startSize=14;jumpStyle=arc;jumpSize=16;rounded=0;edgeStyle=orthogonalEdgeStyle;exitX=0.75;exitY=0;exitDx=0;exitDy=0;exitPerimeter=0;entryX=0.174;entryY=0.992;entryDx=0;entryDy=0;entryPerimeter=0;" edge="1" parent="1" source="3SzR7-pGt0BiJ6Neo7B--54" target="3SzR7-pGt0BiJ6Neo7B--59">
            <mxGeometry x="0.0004" width="240" relative="1" as="geometry">
              <mxPoint x="450" y="1350" as="sourcePoint" />
              <mxPoint x="690" y="1350" as="targetPoint" />
              <mxPoint as="offset" />
            </mxGeometry>
          </mxCell>
        </object>
        <object placeholders="1" c4Type="Relationship" c4Technology="AMQ" c4Description="Submite operações" label="&lt;div style=&quot;text-align: left&quot;&gt;&lt;div style=&quot;text-align: center&quot;&gt;&lt;b&gt;%c4Description%&lt;/b&gt;&lt;/div&gt;&lt;div style=&quot;text-align: center&quot;&gt;[%c4Technology%]&lt;/div&gt;&lt;/div&gt;" id="3SzR7-pGt0BiJ6Neo7B--82">
          <mxCell style="endArrow=blockThin;html=1;fontSize=10;fontColor=#404040;strokeWidth=1;endFill=1;strokeColor=#828282;elbow=vertical;metaEdit=1;endSize=14;startSize=14;jumpStyle=arc;jumpSize=16;rounded=0;edgeStyle=orthogonalEdgeStyle;exitX=1;exitY=0.5;exitDx=0;exitDy=0;exitPerimeter=0;entryX=0.5;entryY=1;entryDx=0;entryDy=0;entryPerimeter=0;" edge="1" parent="1" source="3SzR7-pGt0BiJ6Neo7B--54" target="3SzR7-pGt0BiJ6Neo7B--56">
            <mxGeometry width="240" relative="1" as="geometry">
              <mxPoint x="490" y="1480" as="sourcePoint" />
              <mxPoint x="730" y="1480" as="targetPoint" />
            </mxGeometry>
          </mxCell>
        </object>
        <object placeholders="1" c4Type="Relationship" c4Technology="AMQ" c4Description="Consome mensagens de operações" label="&lt;div style=&quot;text-align: left&quot;&gt;&lt;div style=&quot;text-align: center&quot;&gt;&lt;b&gt;%c4Description%&lt;/b&gt;&lt;/div&gt;&lt;div style=&quot;text-align: center&quot;&gt;[%c4Technology%]&lt;/div&gt;&lt;/div&gt;" id="3SzR7-pGt0BiJ6Neo7B--84">
          <mxCell style="endArrow=blockThin;html=1;fontSize=10;fontColor=#404040;strokeWidth=1;endFill=1;strokeColor=#828282;elbow=vertical;metaEdit=1;endSize=14;startSize=14;jumpStyle=arc;jumpSize=16;rounded=0;edgeStyle=orthogonalEdgeStyle;exitX=0.5;exitY=0;exitDx=0;exitDy=0;exitPerimeter=0;entryX=0.5;entryY=1;entryDx=0;entryDy=0;entryPerimeter=0;" edge="1" parent="1" source="3SzR7-pGt0BiJ6Neo7B--56" target="3SzR7-pGt0BiJ6Neo7B--58">
            <mxGeometry width="240" relative="1" as="geometry">
              <mxPoint x="550" y="1340" as="sourcePoint" />
              <mxPoint x="790" y="1340" as="targetPoint" />
            </mxGeometry>
          </mxCell>
        </object>
        <object placeholders="1" c4Type="Container" c4Container="Frontend" c4Technology="ReactJS" c4Description="Essa interface o cliente pode consultar dados ou lançar transações de débito e crédito" label="&lt;font style=&quot;font-size: 16px&quot;&gt;&lt;b&gt;%c4Type%&lt;/b&gt;&lt;/font&gt;&lt;div&gt;[%c4Container%:&amp;nbsp;%c4Technology%]&lt;/div&gt;&lt;br&gt;&lt;div&gt;&lt;font style=&quot;font-size: 11px&quot;&gt;&lt;font color=&quot;#E6E6E6&quot;&gt;%c4Description%&lt;/font&gt;&lt;/div&gt;" id="3SzR7-pGt0BiJ6Neo7B--85">
          <mxCell style="shape=mxgraph.c4.webBrowserContainer2;whiteSpace=wrap;html=1;boundedLbl=1;rounded=0;labelBackgroundColor=none;strokeColor=#006EAF;fillColor=#1ba1e2;strokeColor=#118ACD;strokeColor2=#0E7DAD;fontSize=12;fontColor=#ffffff;align=center;metaEdit=1;points=[[0.5,0,0],[1,0.25,0],[1,0.5,0],[1,0.75,0],[0.5,1,0],[0,0.75,0],[0,0.5,0],[0,0.25,0]];resizable=0;" vertex="1" parent="1">
            <mxGeometry x="60" y="2080" width="240" height="160" as="geometry" />
          </mxCell>
        </object>
        <object placeholders="1" c4Name="API Produtor" c4Type="ContainerScopeBoundary" c4Application="Backend" label="&lt;font style=&quot;font-size: 16px&quot;&gt;&lt;b&gt;&lt;div style=&quot;text-align: left&quot;&gt;%c4Name%&lt;/div&gt;&lt;/b&gt;&lt;/font&gt;&lt;div style=&quot;text-align: left&quot;&gt;[%c4Application%]&lt;/div&gt;" id="3SzR7-pGt0BiJ6Neo7B--86">
          <mxCell style="rounded=1;fontSize=11;whiteSpace=wrap;html=1;dashed=1;arcSize=20;fillColor=none;strokeColor=#666666;fontColor=#333333;labelBackgroundColor=none;align=left;verticalAlign=bottom;labelBorderColor=none;spacingTop=0;spacing=10;dashPattern=8 4;metaEdit=1;rotatable=0;perimeter=rectanglePerimeter;noLabel=0;labelPadding=0;allowArrows=0;connectable=0;expand=0;recursiveResize=0;editable=1;pointerEvents=0;absoluteArcSize=1;points=[[0.25,0,0],[0.5,0,0],[0.75,0,0],[1,0.25,0],[1,0.5,0],[1,0.75,0],[0.75,1,0],[0.5,1,0],[0.25,1,0],[0,0.75,0],[0,0.5,0],[0,0.25,0]];" vertex="1" parent="1">
            <mxGeometry x="340" y="1810" width="540" height="620" as="geometry" />
          </mxCell>
        </object>
        <mxCell id="3SzR7-pGt0BiJ6Neo7B--101" style="edgeStyle=none;rounded=0;orthogonalLoop=1;jettySize=auto;html=1;entryX=0.442;entryY=1.018;entryDx=0;entryDy=0;entryPerimeter=0;" edge="1" parent="1" source="3SzR7-pGt0BiJ6Neo7B--87" target="3SzR7-pGt0BiJ6Neo7B--100">
          <mxGeometry relative="1" as="geometry" />
        </mxCell>
        <mxCell id="3SzR7-pGt0BiJ6Neo7B--102" value="Lê" style="edgeLabel;html=1;align=center;verticalAlign=middle;resizable=0;points=[];" vertex="1" connectable="0" parent="3SzR7-pGt0BiJ6Neo7B--101">
          <mxGeometry x="0.0752" y="1" relative="1" as="geometry">
            <mxPoint as="offset" />
          </mxGeometry>
        </mxCell>
        <object placeholders="1" c4Name="Autenticador" c4Type="Component" c4Technology=".Net Core Service" c4Description="Description of component role/responsibility." label="&lt;font style=&quot;font-size: 16px&quot;&gt;&lt;b&gt;%c4Name%&lt;/b&gt;&lt;/font&gt;&lt;div&gt;[%c4Type%: %c4Technology%]&lt;/div&gt;&lt;br&gt;&lt;div&gt;&lt;font style=&quot;font-size: 11px&quot;&gt;%c4Description%&lt;/font&gt;&lt;/div&gt;" id="3SzR7-pGt0BiJ6Neo7B--87">
          <mxCell style="rounded=1;whiteSpace=wrap;html=1;labelBackgroundColor=none;fillColor=#63BEF2;fontColor=#ffffff;align=center;arcSize=6;strokeColor=#2086C9;metaEdit=1;resizable=0;points=[[0.25,0,0],[0.5,0,0],[0.75,0,0],[1,0.25,0],[1,0.5,0],[1,0.75,0],[0.75,1,0],[0.5,1,0],[0.25,1,0],[0,0.75,0],[0,0.5,0],[0,0.25,0]];" vertex="1" parent="1">
            <mxGeometry x="510" y="2290" width="240" height="120" as="geometry" />
          </mxCell>
        </object>
        <mxCell id="3SzR7-pGt0BiJ6Neo7B--111" style="edgeStyle=none;rounded=0;orthogonalLoop=1;jettySize=auto;html=1;exitX=0.75;exitY=0;exitDx=0;exitDy=0;exitPerimeter=0;entryX=1;entryY=0.75;entryDx=0;entryDy=0;entryPerimeter=0;" edge="1" parent="1" source="3SzR7-pGt0BiJ6Neo7B--88" target="3SzR7-pGt0BiJ6Neo7B--107">
          <mxGeometry relative="1" as="geometry">
            <mxPoint x="810" y="1990" as="sourcePoint" />
            <mxPoint x="843" y="1850" as="targetPoint" />
          </mxGeometry>
        </mxCell>
        <mxCell id="3SzR7-pGt0BiJ6Neo7B--112" value="Valida" style="edgeLabel;html=1;align=center;verticalAlign=middle;resizable=0;points=[];" vertex="1" connectable="0" parent="3SzR7-pGt0BiJ6Neo7B--111">
          <mxGeometry x="0.2491" relative="1" as="geometry">
            <mxPoint as="offset" />
          </mxGeometry>
        </mxCell>
        <object placeholders="1" c4Name="Healthchecks" c4Type="Component" c4Technology="e.g. Spring Service" c4Description="Description of component role/responsibility." label="&lt;font style=&quot;font-size: 16px&quot;&gt;&lt;b&gt;%c4Name%&lt;/b&gt;&lt;/font&gt;&lt;div&gt;[%c4Type%: %c4Technology%]&lt;/div&gt;&lt;br&gt;&lt;div&gt;&lt;font style=&quot;font-size: 11px&quot;&gt;%c4Description%&lt;/font&gt;&lt;/div&gt;" id="3SzR7-pGt0BiJ6Neo7B--88">
          <mxCell style="rounded=1;whiteSpace=wrap;html=1;labelBackgroundColor=none;fillColor=#63BEF2;fontColor=#ffffff;align=center;arcSize=6;strokeColor=#2086C9;metaEdit=1;resizable=0;points=[[0.25,0,0],[0.5,0,0],[0.75,0,0],[1,0.25,0],[1,0.5,0],[1,0.75,0],[0.75,1,0],[0.5,1,0],[0.25,1,0],[0,0.75,0],[0,0.5,0],[0,0.25,0]];" vertex="1" parent="1">
            <mxGeometry x="600" y="1990" width="240" height="120" as="geometry" />
          </mxCell>
        </object>
        <object placeholders="1" c4Name="Controle de operações" c4Type="Component" c4Technology="e.g. Spring Service" c4Description="Description of component role/responsibility." label="&lt;font style=&quot;font-size: 16px&quot;&gt;&lt;b&gt;%c4Name%&lt;/b&gt;&lt;/font&gt;&lt;div&gt;[%c4Type%: %c4Technology%]&lt;/div&gt;&lt;br&gt;&lt;div&gt;&lt;font style=&quot;font-size: 11px&quot;&gt;%c4Description%&lt;/font&gt;&lt;/div&gt;" id="3SzR7-pGt0BiJ6Neo7B--89">
          <mxCell style="rounded=1;whiteSpace=wrap;html=1;labelBackgroundColor=none;fillColor=#63BEF2;fontColor=#ffffff;align=center;arcSize=6;strokeColor=#2086C9;metaEdit=1;resizable=0;points=[[0.25,0,0],[0.5,0,0],[0.75,0,0],[1,0.25,0],[1,0.5,0],[1,0.75,0],[0.75,1,0],[0.5,1,0],[0.25,1,0],[0,0.75,0],[0,0.5,0],[0,0.25,0]];" vertex="1" parent="1">
            <mxGeometry x="380" y="1850" width="240" height="120" as="geometry" />
          </mxCell>
        </object>
        <object placeholders="1" c4Name="Logs" c4Type="Component" c4Technology="e.g. Spring Service" c4Description="Description of component role/responsibility." label="&lt;font style=&quot;font-size: 16px&quot;&gt;&lt;b&gt;%c4Name%&lt;/b&gt;&lt;/font&gt;&lt;div&gt;[%c4Type%: %c4Technology%]&lt;/div&gt;&lt;br&gt;&lt;div&gt;&lt;font style=&quot;font-size: 11px&quot;&gt;%c4Description%&lt;/font&gt;&lt;/div&gt;" id="3SzR7-pGt0BiJ6Neo7B--90">
          <mxCell style="rounded=1;whiteSpace=wrap;html=1;labelBackgroundColor=none;fillColor=#63BEF2;fontColor=#ffffff;align=center;arcSize=6;strokeColor=#2086C9;metaEdit=1;resizable=0;points=[[0.25,0,0],[0.5,0,0],[0.75,0,0],[1,0.25,0],[1,0.5,0],[1,0.75,0],[0.75,1,0],[0.5,1,0],[0.25,1,0],[0,0.75,0],[0,0.5,0],[0,0.25,0]];" vertex="1" parent="1">
            <mxGeometry x="380" y="2120" width="240" height="120" as="geometry" />
          </mxCell>
        </object>
        <mxCell id="3SzR7-pGt0BiJ6Neo7B--91" style="edgeStyle=none;rounded=0;orthogonalLoop=1;jettySize=auto;html=1;entryX=0;entryY=0.5;entryDx=0;entryDy=0;entryPerimeter=0;" edge="1" parent="1" source="3SzR7-pGt0BiJ6Neo7B--85" target="3SzR7-pGt0BiJ6Neo7B--87">
          <mxGeometry relative="1" as="geometry" />
        </mxCell>
        <mxCell id="3SzR7-pGt0BiJ6Neo7B--92" value="Consulta&lt;br&gt;(http)" style="edgeLabel;html=1;align=center;verticalAlign=middle;resizable=0;points=[];" vertex="1" connectable="0" parent="3SzR7-pGt0BiJ6Neo7B--91">
          <mxGeometry x="-0.0147" y="-2" relative="1" as="geometry">
            <mxPoint as="offset" />
          </mxGeometry>
        </mxCell>
        <mxCell id="3SzR7-pGt0BiJ6Neo7B--93" style="edgeStyle=none;rounded=0;orthogonalLoop=1;jettySize=auto;html=1;entryX=0;entryY=0.5;entryDx=0;entryDy=0;entryPerimeter=0;" edge="1" parent="1" source="3SzR7-pGt0BiJ6Neo7B--85" target="3SzR7-pGt0BiJ6Neo7B--89">
          <mxGeometry relative="1" as="geometry" />
        </mxCell>
        <mxCell id="3SzR7-pGt0BiJ6Neo7B--94" value="Consulta&lt;br&gt;(http)" style="edgeLabel;html=1;align=center;verticalAlign=middle;resizable=0;points=[];" vertex="1" connectable="0" parent="3SzR7-pGt0BiJ6Neo7B--93">
          <mxGeometry x="-0.1423" y="-2" relative="1" as="geometry">
            <mxPoint as="offset" />
          </mxGeometry>
        </mxCell>
        <mxCell id="3SzR7-pGt0BiJ6Neo7B--95" style="edgeStyle=none;rounded=0;orthogonalLoop=1;jettySize=auto;html=1;entryX=0.5;entryY=0;entryDx=0;entryDy=0;entryPerimeter=0;" edge="1" parent="1" source="3SzR7-pGt0BiJ6Neo7B--89" target="3SzR7-pGt0BiJ6Neo7B--90">
          <mxGeometry relative="1" as="geometry">
            <mxPoint x="500" y="2050" as="targetPoint" />
          </mxGeometry>
        </mxCell>
        <mxCell id="3SzR7-pGt0BiJ6Neo7B--96" value="Usa" style="edgeLabel;html=1;align=center;verticalAlign=middle;resizable=0;points=[];" vertex="1" connectable="0" parent="3SzR7-pGt0BiJ6Neo7B--95">
          <mxGeometry x="0.2941" y="-2" relative="1" as="geometry">
            <mxPoint x="-21" y="-2" as="offset" />
          </mxGeometry>
        </mxCell>
        <mxCell id="3SzR7-pGt0BiJ6Neo7B--98" style="edgeStyle=none;rounded=0;orthogonalLoop=1;jettySize=auto;html=1;entryX=1;entryY=0.5;entryDx=0;entryDy=0;entryPerimeter=0;" edge="1" parent="1" source="3SzR7-pGt0BiJ6Neo7B--88" target="3SzR7-pGt0BiJ6Neo7B--90">
          <mxGeometry relative="1" as="geometry" />
        </mxCell>
        <mxCell id="3SzR7-pGt0BiJ6Neo7B--99" value="Valida" style="edgeLabel;html=1;align=center;verticalAlign=middle;resizable=0;points=[];" vertex="1" connectable="0" parent="3SzR7-pGt0BiJ6Neo7B--98">
          <mxGeometry x="-0.258" relative="1" as="geometry">
            <mxPoint as="offset" />
          </mxGeometry>
        </mxCell>
        <object placeholders="1" c4Type="Container" c4Container="Banco de dados" c4Technology="Microsoft SQL Server Developer (64-bit)" c4Description="Persistir os dados do sistema de transações de débito e crédito" label="&lt;font style=&quot;font-size: 16px&quot;&gt;&lt;b&gt;%c4Type%&lt;/b&gt;&lt;/font&gt;&lt;div&gt;[%c4Container%:&amp;nbsp;%c4Technology%]&lt;/div&gt;&lt;br&gt;&lt;div&gt;&lt;font style=&quot;font-size: 11px&quot;&gt;&lt;font color=&quot;#E6E6E6&quot;&gt;%c4Description%&lt;/font&gt;&lt;/div&gt;" id="3SzR7-pGt0BiJ6Neo7B--100">
          <mxCell style="shape=cylinder3;size=15;whiteSpace=wrap;html=1;boundedLbl=1;rounded=0;labelBackgroundColor=none;fillColor=#1ba1e2;fontSize=12;fontColor=#ffffff;align=center;strokeColor=#006EAF;metaEdit=1;points=[[0.5,0,0],[1,0.25,0],[1,0.5,0],[1,0.75,0],[0.5,1,0],[0,0.75,0],[0,0.5,0],[0,0.25,0]];resizable=0;" vertex="1" parent="1">
            <mxGeometry x="900" y="1910" width="240" height="120" as="geometry" />
          </mxCell>
        </object>
        <mxCell id="3SzR7-pGt0BiJ6Neo7B--103" style="edgeStyle=none;rounded=0;orthogonalLoop=1;jettySize=auto;html=1;entryX=0.035;entryY=0.952;entryDx=0;entryDy=0;entryPerimeter=0;" edge="1" parent="1" source="3SzR7-pGt0BiJ6Neo7B--88" target="3SzR7-pGt0BiJ6Neo7B--100">
          <mxGeometry relative="1" as="geometry">
            <mxPoint x="920" y="1910" as="targetPoint" />
          </mxGeometry>
        </mxCell>
        <mxCell id="3SzR7-pGt0BiJ6Neo7B--104" value="Valida" style="edgeLabel;html=1;align=center;verticalAlign=middle;resizable=0;points=[];" vertex="1" connectable="0" parent="3SzR7-pGt0BiJ6Neo7B--103">
          <mxGeometry x="0.1054" y="-2" relative="1" as="geometry">
            <mxPoint as="offset" />
          </mxGeometry>
        </mxCell>
        <mxCell id="3SzR7-pGt0BiJ6Neo7B--105" style="edgeStyle=none;rounded=0;orthogonalLoop=1;jettySize=auto;html=1;entryX=0;entryY=0.25;entryDx=0;entryDy=0;entryPerimeter=0;exitX=1;exitY=0.5;exitDx=0;exitDy=0;exitPerimeter=0;" edge="1" parent="1" source="3SzR7-pGt0BiJ6Neo7B--89" target="3SzR7-pGt0BiJ6Neo7B--100">
          <mxGeometry relative="1" as="geometry" />
        </mxCell>
        <mxCell id="3SzR7-pGt0BiJ6Neo7B--106" value="Lê" style="edgeLabel;html=1;align=center;verticalAlign=middle;resizable=0;points=[];" vertex="1" connectable="0" parent="3SzR7-pGt0BiJ6Neo7B--105">
          <mxGeometry x="0.1386" y="-1" relative="1" as="geometry">
            <mxPoint as="offset" />
          </mxGeometry>
        </mxCell>
        <object placeholders="1" c4Type="Container" c4Container="Broker" c4Technology="RabbitMq" c4Description="Sistema de mensageria para controle de solicitações de gravação das transações" label="&lt;font style=&quot;font-size: 16px&quot;&gt;&lt;b&gt;%c4Type%&lt;/b&gt;&lt;/font&gt;&lt;div&gt;[%c4Container%:&amp;nbsp;%c4Technology%]&lt;/div&gt;&lt;br&gt;&lt;div&gt;&lt;font style=&quot;font-size: 11px&quot;&gt;&lt;font color=&quot;#E6E6E6&quot;&gt;%c4Description%&lt;/font&gt;&lt;/div&gt;" id="3SzR7-pGt0BiJ6Neo7B--107">
          <mxCell style="shape=cylinder3;size=15;direction=south;whiteSpace=wrap;html=1;boundedLbl=1;rounded=0;labelBackgroundColor=none;fillColor=#1ba1e2;fontSize=12;fontColor=#ffffff;align=center;strokeColor=#006EAF;metaEdit=1;points=[[0.5,0,0],[1,0.25,0],[1,0.5,0],[1,0.75,0],[0.5,1,0],[0,0.75,0],[0,0.5,0],[0,0.25,0]];resizable=0;" vertex="1" parent="1">
            <mxGeometry x="750" y="1730" width="240" height="120" as="geometry" />
          </mxCell>
        </object>
        <mxCell id="3SzR7-pGt0BiJ6Neo7B--113" style="edgeStyle=none;rounded=0;orthogonalLoop=1;jettySize=auto;html=1;entryX=0.5;entryY=1;entryDx=0;entryDy=0;entryPerimeter=0;exitX=1.014;exitY=0.104;exitDx=0;exitDy=0;exitPerimeter=0;" edge="1" parent="1" source="3SzR7-pGt0BiJ6Neo7B--89" target="3SzR7-pGt0BiJ6Neo7B--107">
          <mxGeometry relative="1" as="geometry">
            <mxPoint x="630" y="1850" as="sourcePoint" />
          </mxGeometry>
        </mxCell>
        <mxCell id="3SzR7-pGt0BiJ6Neo7B--114" value="Publica&amp;nbsp;" style="edgeLabel;html=1;align=center;verticalAlign=middle;resizable=0;points=[];" vertex="1" connectable="0" parent="3SzR7-pGt0BiJ6Neo7B--113">
          <mxGeometry x="-0.174" relative="1" as="geometry">
            <mxPoint as="offset" />
          </mxGeometry>
        </mxCell>
        <mxCell id="3SzR7-pGt0BiJ6Neo7B--117" value="&lt;font color=&quot;#6b6b6b&quot; style=&quot;font-size: 36px;&quot;&gt;&lt;b style=&quot;&quot;&gt;Componentes&lt;/b&gt;&lt;/font&gt;" style="text;html=1;strokeColor=none;fillColor=none;align=left;verticalAlign=middle;whiteSpace=wrap;rounded=0;" vertex="1" parent="1">
          <mxGeometry x="60" y="2510" width="250" height="30" as="geometry" />
        </mxCell>
        <mxCell id="3SzR7-pGt0BiJ6Neo7B--118" value="&lt;b style=&quot;border-color: var(--border-color); font-size: 24px;&quot;&gt;Documentação para aplicação Cashflow&lt;/b&gt;" style="text;html=1;strokeColor=none;fillColor=none;align=left;verticalAlign=middle;whiteSpace=wrap;rounded=0;" vertex="1" parent="1">
          <mxGeometry x="65" y="2550" width="630" height="30" as="geometry" />
        </mxCell>
        <object placeholders="1" c4Name="API Consumidor" c4Type="ContainerScopeBoundary" c4Application="Backend" label="&lt;font style=&quot;font-size: 16px&quot;&gt;&lt;b&gt;&lt;div style=&quot;text-align: left&quot;&gt;%c4Name%&lt;/div&gt;&lt;/b&gt;&lt;/font&gt;&lt;div style=&quot;text-align: left&quot;&gt;[%c4Application%]&lt;/div&gt;" id="3SzR7-pGt0BiJ6Neo7B--120">
          <mxCell style="rounded=1;fontSize=11;whiteSpace=wrap;html=1;dashed=1;arcSize=20;fillColor=none;strokeColor=#666666;fontColor=#333333;labelBackgroundColor=none;align=left;verticalAlign=bottom;labelBorderColor=none;spacingTop=0;spacing=10;dashPattern=8 4;metaEdit=1;rotatable=0;perimeter=rectanglePerimeter;noLabel=0;labelPadding=0;allowArrows=0;connectable=0;expand=0;recursiveResize=0;editable=1;pointerEvents=0;absoluteArcSize=1;points=[[0.25,0,0],[0.5,0,0],[0.75,0,0],[1,0.25,0],[1,0.5,0],[1,0.75,0],[0.75,1,0],[0.5,1,0],[0.25,1,0],[0,0.75,0],[0,0.5,0],[0,0.25,0]];" vertex="1" parent="1">
            <mxGeometry x="365" y="2610" width="410" height="620" as="geometry" />
          </mxCell>
        </object>
        <object placeholders="1" c4Name="Consome mensagens" c4Type="Component" c4Technology="e.g. Spring Service" c4Description="Description of component role/responsibility." label="&lt;font style=&quot;font-size: 16px&quot;&gt;&lt;b&gt;%c4Name%&lt;/b&gt;&lt;/font&gt;&lt;div&gt;[%c4Type%: %c4Technology%]&lt;/div&gt;&lt;br&gt;&lt;div&gt;&lt;font style=&quot;font-size: 11px&quot;&gt;%c4Description%&lt;/font&gt;&lt;/div&gt;" id="3SzR7-pGt0BiJ6Neo7B--127">
          <mxCell style="rounded=1;whiteSpace=wrap;html=1;labelBackgroundColor=none;fillColor=#63BEF2;fontColor=#ffffff;align=center;arcSize=6;strokeColor=#2086C9;metaEdit=1;resizable=0;points=[[0.25,0,0],[0.5,0,0],[0.75,0,0],[1,0.25,0],[1,0.5,0],[1,0.75,0],[0.75,1,0],[0.5,1,0],[0.25,1,0],[0,0.75,0],[0,0.5,0],[0,0.25,0]];" vertex="1" parent="1">
            <mxGeometry x="445" y="2650" width="240" height="120" as="geometry" />
          </mxCell>
        </object>
        <object placeholders="1" c4Name="Logs" c4Type="Component" c4Technology="e.g. Spring Service" c4Description="Description of component role/responsibility." label="&lt;font style=&quot;font-size: 16px&quot;&gt;&lt;b&gt;%c4Name%&lt;/b&gt;&lt;/font&gt;&lt;div&gt;[%c4Type%: %c4Technology%]&lt;/div&gt;&lt;br&gt;&lt;div&gt;&lt;font style=&quot;font-size: 11px&quot;&gt;%c4Description%&lt;/font&gt;&lt;/div&gt;" id="3SzR7-pGt0BiJ6Neo7B--128">
          <mxCell style="rounded=1;whiteSpace=wrap;html=1;labelBackgroundColor=none;fillColor=#63BEF2;fontColor=#ffffff;align=center;arcSize=6;strokeColor=#2086C9;metaEdit=1;resizable=0;points=[[0.25,0,0],[0.5,0,0],[0.75,0,0],[1,0.25,0],[1,0.5,0],[1,0.75,0],[0.75,1,0],[0.5,1,0],[0.25,1,0],[0,0.75,0],[0,0.5,0],[0,0.25,0]];" vertex="1" parent="1">
            <mxGeometry x="445" y="2980" width="240" height="120" as="geometry" />
          </mxCell>
        </object>
        <mxCell id="3SzR7-pGt0BiJ6Neo7B--133" style="edgeStyle=none;rounded=0;orthogonalLoop=1;jettySize=auto;html=1;entryX=0.5;entryY=0;entryDx=0;entryDy=0;entryPerimeter=0;" edge="1" parent="1" source="3SzR7-pGt0BiJ6Neo7B--127" target="3SzR7-pGt0BiJ6Neo7B--128">
          <mxGeometry relative="1" as="geometry">
            <mxPoint x="525" y="2850" as="targetPoint" />
          </mxGeometry>
        </mxCell>
        <mxCell id="3SzR7-pGt0BiJ6Neo7B--134" value="Usa" style="edgeLabel;html=1;align=center;verticalAlign=middle;resizable=0;points=[];" vertex="1" connectable="0" parent="3SzR7-pGt0BiJ6Neo7B--133">
          <mxGeometry x="0.2941" y="-2" relative="1" as="geometry">
            <mxPoint x="-21" y="-2" as="offset" />
          </mxGeometry>
        </mxCell>
        <object placeholders="1" c4Type="Container" c4Container="Banco de dados" c4Technology="Microsoft SQL Server Developer (64-bit)" c4Description="Persistir os dados do sistema de transações de débito e crédito" label="&lt;font style=&quot;font-size: 16px&quot;&gt;&lt;b&gt;%c4Type%&lt;/b&gt;&lt;/font&gt;&lt;div&gt;[%c4Container%:&amp;nbsp;%c4Technology%]&lt;/div&gt;&lt;br&gt;&lt;div&gt;&lt;font style=&quot;font-size: 11px&quot;&gt;&lt;font color=&quot;#E6E6E6&quot;&gt;%c4Description%&lt;/font&gt;&lt;/div&gt;" id="3SzR7-pGt0BiJ6Neo7B--137">
          <mxCell style="shape=cylinder3;size=15;whiteSpace=wrap;html=1;boundedLbl=1;rounded=0;labelBackgroundColor=none;fillColor=#1ba1e2;fontSize=12;fontColor=#ffffff;align=center;strokeColor=#006EAF;metaEdit=1;points=[[0.5,0,0],[1,0.25,0],[1,0.5,0],[1,0.75,0],[0.5,1,0],[0,0.75,0],[0,0.5,0],[0,0.25,0]];resizable=0;" vertex="1" parent="1">
            <mxGeometry x="820" y="2835" width="240" height="120" as="geometry" />
          </mxCell>
        </object>
        <mxCell id="3SzR7-pGt0BiJ6Neo7B--140" style="edgeStyle=none;rounded=0;orthogonalLoop=1;jettySize=auto;html=1;entryX=0.388;entryY=0.008;entryDx=0;entryDy=0;entryPerimeter=0;exitX=1;exitY=0.5;exitDx=0;exitDy=0;exitPerimeter=0;" edge="1" parent="1" source="3SzR7-pGt0BiJ6Neo7B--127" target="3SzR7-pGt0BiJ6Neo7B--137">
          <mxGeometry relative="1" as="geometry">
            <mxPoint x="835" y="2820" as="targetPoint" />
          </mxGeometry>
        </mxCell>
        <mxCell id="3SzR7-pGt0BiJ6Neo7B--141" value="Grava" style="edgeLabel;html=1;align=center;verticalAlign=middle;resizable=0;points=[];" vertex="1" connectable="0" parent="3SzR7-pGt0BiJ6Neo7B--140">
          <mxGeometry x="0.1386" y="-1" relative="1" as="geometry">
            <mxPoint as="offset" />
          </mxGeometry>
        </mxCell>
        <object placeholders="1" c4Type="Container" c4Container="Broker" c4Technology="RabbitMq" c4Description="Sistema de mensageria para controle de solicitações de gravação das transações" label="&lt;font style=&quot;font-size: 16px&quot;&gt;&lt;b&gt;%c4Type%&lt;/b&gt;&lt;/font&gt;&lt;div&gt;[%c4Container%:&amp;nbsp;%c4Technology%]&lt;/div&gt;&lt;br&gt;&lt;div&gt;&lt;font style=&quot;font-size: 11px&quot;&gt;&lt;font color=&quot;#E6E6E6&quot;&gt;%c4Description%&lt;/font&gt;&lt;/div&gt;" id="3SzR7-pGt0BiJ6Neo7B--142">
          <mxCell style="shape=cylinder3;size=15;direction=south;whiteSpace=wrap;html=1;boundedLbl=1;rounded=0;labelBackgroundColor=none;fillColor=#1ba1e2;fontSize=12;fontColor=#ffffff;align=center;strokeColor=#006EAF;metaEdit=1;points=[[0.5,0,0],[1,0.25,0],[1,0.5,0],[1,0.75,0],[0.5,1,0],[0,0.75,0],[0,0.5,0],[0,0.25,0]];resizable=0;" vertex="1" parent="1">
            <mxGeometry x="65" y="2860" width="240" height="120" as="geometry" />
          </mxCell>
        </object>
        <mxCell id="3SzR7-pGt0BiJ6Neo7B--143" style="edgeStyle=none;rounded=0;orthogonalLoop=1;jettySize=auto;html=1;entryX=0;entryY=0.5;entryDx=0;entryDy=0;entryPerimeter=0;exitX=0;exitY=0.5;exitDx=0;exitDy=0;exitPerimeter=0;" edge="1" parent="1" source="3SzR7-pGt0BiJ6Neo7B--127" target="3SzR7-pGt0BiJ6Neo7B--142">
          <mxGeometry relative="1" as="geometry">
            <mxPoint x="590" y="2650" as="sourcePoint" />
          </mxGeometry>
        </mxCell>
        <mxCell id="3SzR7-pGt0BiJ6Neo7B--144" value="Consome" style="edgeLabel;html=1;align=center;verticalAlign=middle;resizable=0;points=[];" vertex="1" connectable="0" parent="3SzR7-pGt0BiJ6Neo7B--143">
          <mxGeometry x="-0.174" relative="1" as="geometry">
            <mxPoint as="offset" />
          </mxGeometry>
        </mxCell>
      </root>
    </mxGraphModel>
  </diagram>
</mxfile>
